<svg width="149" height="43" viewBox="0 0 149 43" fill="none" xmlns="http://www.w3.org/2000/svg">
<path d="M0 12.1777H3.28564V17.9889C3.96781 17.1854 5.09468 16.4775 6.66626 16.4775C9.24814 16.4775 10.824 18.2495 10.824 20.9422V29.1378H7.5384V21.8847C7.5384 20.4906 6.9728 19.5003 5.56529 19.5003C4.41251 19.5003 3.28564 20.3255 3.28564 21.9585V29.1378H0V12.1777Z" fill="#1E1E2D"/>
<path d="M24.182 29.1377H20.8964V27.8608C20.2142 28.6643 19.1348 29.394 17.5633 29.394C15.003 29.394 13.3623 27.6219 13.3623 24.9292V16.7119H16.6479V24.1995C16.6479 25.5676 17.2567 26.4667 18.621 26.4667C19.7738 26.4667 20.9007 25.6154 20.9007 24.0084V16.7119H24.1863V29.1334L24.182 29.1377Z" fill="#1E1E2D"/>
<path d="M30.1919 29.1374H26.9062V16.716H30.1919V17.9929C30.8482 17.1894 31.9534 16.4814 33.5509 16.4814C35.0534 16.4814 36.2062 17.1199 36.884 18.184C37.6353 17.4065 38.8097 16.4814 40.7094 16.4814C43.2438 16.4814 44.8887 18.2535 44.8887 20.9462V29.1418H41.6031V21.8887C41.6031 20.4945 41.085 19.5043 39.725 19.5043C38.6456 19.5043 37.5403 20.3295 37.5403 21.9625V29.1418H34.2547V21.8887C34.2547 20.4945 33.7366 19.5043 32.3766 19.5043C31.2972 19.5043 30.1919 20.3295 30.1919 21.9625V29.1418V29.1374Z" fill="#1E1E2D"/>
<path d="M46.6987 25.6898C46.6987 23.2099 48.6718 22.1719 51.1587 21.7202L54.2327 21.1295V20.9384C54.2327 19.8743 53.693 19.2142 52.3287 19.2142C51.1068 19.2142 50.4722 19.7571 50.1915 20.8689L47.07 20.2782C47.6356 18.1762 49.5137 16.4736 52.4453 16.4736C55.5668 16.4736 57.445 17.9156 57.445 20.7951V25.8722C57.445 26.5324 57.7256 26.7452 58.4553 26.6497V29.1296C56.3656 29.438 55.0962 29.0123 54.5565 27.9743C53.7578 28.8473 52.5144 29.3424 50.8953 29.3424C48.4775 29.3424 46.6943 27.8788 46.6943 25.6811L46.6987 25.6898ZM54.2371 23.4444L51.8192 23.9395C50.7399 24.1523 49.9411 24.5041 49.9411 25.4987C49.9411 26.35 50.5758 26.8451 51.5602 26.8451C52.9461 26.8451 54.2371 26.1111 54.2371 24.7213V23.4444Z" fill="#1E1E2D"/>
<path d="M60.3115 16.7121H63.5972V17.989C64.2793 17.1855 65.4062 16.4775 66.9778 16.4775C69.5597 16.4775 71.1356 18.2495 71.1356 20.9423V29.1379H67.8499V21.8848C67.8499 20.4906 67.2843 19.5004 65.8768 19.5004C64.724 19.5004 63.5972 20.3256 63.5972 21.9586V29.1379H60.3115V16.7164V16.7121Z" fill="#1E1E2D"/>
<path d="M74.5896 24.9341C75.4359 26.0937 76.9384 26.8234 78.3243 26.8234C79.4296 26.8234 80.3924 26.4455 80.3924 25.5465C80.3924 24.5997 79.4771 24.4824 77.504 24.1046C75.5093 23.705 73.303 23.1838 73.303 20.5128C73.303 18.1284 75.3927 16.4736 78.3502 16.4736C80.5349 16.4736 82.4821 17.3727 83.4449 18.6235L81.5668 20.7039C80.7464 19.6398 79.5462 19.0491 78.2552 19.0491C77.2233 19.0491 76.5412 19.4965 76.5412 20.1827C76.5412 20.9862 77.3615 21.1295 78.8899 21.4335C81.0486 21.8809 83.6089 22.3803 83.6089 25.1904C83.6089 27.7876 81.2127 29.3945 78.2552 29.3945C76.0231 29.3945 73.6786 28.5693 72.5518 27.0319L74.594 24.9298L74.5896 24.9341Z" fill="#1E1E2D"/>
<path d="M85.7158 26.8662H87.8055V29.1333H85.7158V26.8662Z" fill="#1E1E2D"/>
<path d="M91.0227 18.1543H88.9805V16.8079H91.0227V13.2422H92.5511V16.8079H95.5086V18.1543H92.5511V26.0893C92.5511 27.5051 93.1857 27.8613 94.3601 27.8613C94.8782 27.8613 95.3013 27.8135 95.841 27.6702V29.0383C95.2797 29.1816 94.7616 29.2511 94.0579 29.2511C92.1539 29.2511 91.027 28.5432 91.027 26.3238V18.15L91.0227 18.1543Z" fill="#1E1E2D"/>
<path d="M97.7139 22.9702C97.7139 19.2394 99.9201 16.5684 103.184 16.5684C106.448 16.5684 108.21 19.1439 108.21 22.5663V23.0875H99.1948C99.2423 26.0886 100.887 27.9996 103.258 27.9996C105.114 27.9996 106.332 26.9616 106.707 25.3285L108.115 25.7759C107.459 27.9952 105.697 29.3677 103.253 29.3677C99.9201 29.3677 97.7139 26.7705 97.7139 22.9658V22.9702ZM99.2639 21.8583H106.638C106.591 19.8257 105.58 17.9365 103.184 17.9365C101.142 17.9365 99.6136 19.4262 99.2639 21.8583Z" fill="#1E1E2D"/>
<path d="M115.956 28.0045C117.812 28.0045 118.892 26.8231 119.267 25.1684L120.675 25.7373C120.135 27.8872 118.443 29.3769 115.956 29.3769C112.623 29.3769 110.391 26.8014 110.391 22.9751C110.391 19.1487 112.623 16.5732 115.956 16.5732C118.421 16.5732 120.088 18.0629 120.653 20.1868L119.267 20.7774C118.892 19.1227 117.812 17.9413 115.956 17.9413C113.56 17.9413 111.941 19.9262 111.941 22.9707C111.941 26.0153 113.56 28.0001 115.956 28.0001V28.0045Z" fill="#1E1E2D"/>
<path d="M123.49 12.1777H125.04V18.7924C125.744 17.5893 127.061 16.573 128.913 16.573C131.564 16.573 132.95 18.4145 132.95 21.0378V29.1378H131.4V21.3896C131.4 19.4786 130.58 18.0367 128.537 18.0367C126.823 18.0367 125.04 19.4048 125.04 21.6762V29.1378H123.49V12.1777Z" fill="#1E1E2D"/>
<path d="M149 8.76942L147.993 5.61747L143.364 7.14272V0.605469H140.095V5.53969L133.965 3.52068L132.954 6.66925L137.58 8.1945L133.791 13.4838L136.433 15.4318L139.295 11.4378L143.087 16.7271L145.728 14.7825L142.867 10.7884L149 8.76942Z" fill="#4437F3"/>
</svg>
