<svg preserveAspectRatio="none" width="100%" height="100%" overflow="visible" style="display: block;" viewBox="0 0 62.1077 62.1077" fill="none" xmlns="http://www.w3.org/2000/svg">
<g id="SVG">
<path id="Vector" d="M15.5286 10.3525H46.5825V21.9977C46.5825 26.1157 44.9466 30.065 42.0347 32.9769C39.1229 35.8888 35.1735 37.5246 31.0555 37.5246C26.9375 37.5246 22.9882 35.8888 20.0763 32.9769C17.1645 30.065 15.5286 26.1157 15.5286 21.9977V10.3525Z" stroke="var(--stroke-0, white)" stroke-width="4.3993" stroke-linecap="round" stroke-linejoin="round"/>
<path id="Vector_2" d="M15.53 14.2344H9.06048V18.1162C9.06048 20.1752 9.87841 22.1498 11.3343 23.6058C12.7903 25.0617 14.7649 25.8796 16.8239 25.8796" stroke="var(--stroke-0, white)" stroke-width="4.3993" stroke-linecap="round" stroke-linejoin="round"/>
<path id="Vector_3" d="M46.5801 14.2344H53.0496V18.1162C53.0496 20.1752 52.2317 22.1498 50.7758 23.6058C49.3198 25.0617 47.3452 25.8796 45.2862 25.8796" stroke="var(--stroke-0, white)" stroke-width="4.3993" stroke-linecap="round" stroke-linejoin="round"/>
<path id="Vector_4" d="M31.0563 37.525V43.9945" stroke="var(--stroke-0, white)" stroke-width="4.3993" stroke-linecap="round" stroke-linejoin="round"/>
<path id="Vector_5" d="M21.9967 53.0516H40.1114" stroke="var(--stroke-0, white)" stroke-width="4.3993" stroke-linecap="round" stroke-linejoin="round"/>
<path id="Vector_6" d="M24.5882 45.2878H37.5273L36.4922 53.0512H25.6233L24.5882 45.2878Z" stroke="var(--stroke-0, white)" stroke-width="4.3993" stroke-linecap="round" stroke-linejoin="round"/>
</g>
</svg>
