<svg preserveAspectRatio="none" width="100%" height="100%" overflow="visible" style="display: block;" viewBox="0 0 62.1077 62.1077" fill="none" xmlns="http://www.w3.org/2000/svg">
<g id="SVG">
<path id="Vector" d="M15.5282 10.3525H46.5821V21.9977C46.5821 26.1157 44.9462 30.065 42.0344 32.9769C39.1225 35.8888 35.1732 37.5246 31.0552 37.5246C26.9372 37.5246 22.9878 35.8888 20.076 32.9769C17.1641 30.065 15.5282 26.1157 15.5282 21.9977V10.3525Z" stroke="var(--stroke-0, white)" stroke-width="4.3993" stroke-linecap="round" stroke-linejoin="round"/>
<path id="Vector_2" d="M15.5297 14.2344H9.06013V18.1162C9.06013 20.1752 9.87807 22.1498 11.334 23.6058C12.7899 25.0617 14.7646 25.8796 16.8236 25.8796" stroke="var(--stroke-0, white)" stroke-width="4.3993" stroke-linecap="round" stroke-linejoin="round"/>
<path id="Vector_3" d="M46.5797 14.2344H53.0493V18.1162C53.0493 20.1752 52.2313 22.1498 50.7754 23.6058C49.3195 25.0617 47.3448 25.8796 45.2858 25.8796" stroke="var(--stroke-0, white)" stroke-width="4.3993" stroke-linecap="round" stroke-linejoin="round"/>
<path id="Vector_4" d="M31.056 37.525V43.9945" stroke="var(--stroke-0, white)" stroke-width="4.3993" stroke-linecap="round" stroke-linejoin="round"/>
<path id="Vector_5" d="M21.9963 53.0516H40.1111" stroke="var(--stroke-0, white)" stroke-width="4.3993" stroke-linecap="round" stroke-linejoin="round"/>
<path id="Vector_6" d="M24.5836 45.2878H37.5227L36.4876 53.0512H25.6187L24.5836 45.2878Z" stroke="var(--stroke-0, white)" stroke-width="4.3993" stroke-linecap="round" stroke-linejoin="round"/>
</g>
</svg>
