<svg preserveAspectRatio="none" width="100%" height="100%" overflow="visible" style="display: block;" viewBox="0 0 62.1077 62.1077" fill="none" xmlns="http://www.w3.org/2000/svg">
<g id="SVG">
<path id="Vector" d="M15.5275 10.3525H46.5814V21.9977C46.5814 26.1157 44.9455 30.065 42.0337 32.9769C39.1218 35.8888 35.1725 37.5246 31.0545 37.5246C26.9365 37.5246 22.9871 35.8888 20.0753 32.9769C17.1634 30.065 15.5275 26.1157 15.5275 21.9977V10.3525Z" stroke="var(--stroke-0, white)" stroke-width="4.3993" stroke-linecap="round" stroke-linejoin="round"/>
<path id="Vector_2" d="M15.529 14.2344H9.05941V18.1162C9.05941 20.1752 9.87735 22.1498 11.3333 23.6058C12.7892 25.0617 14.7639 25.8796 16.8229 25.8796" stroke="var(--stroke-0, white)" stroke-width="4.3993" stroke-linecap="round" stroke-linejoin="round"/>
<path id="Vector_3" d="M46.579 14.2344H53.0486V18.1162C53.0486 20.1752 52.2306 22.1498 50.7747 23.6058C49.3188 25.0617 47.3441 25.8796 45.2851 25.8796" stroke="var(--stroke-0, white)" stroke-width="4.3993" stroke-linecap="round" stroke-linejoin="round"/>
<path id="Vector_4" d="M31.0553 37.525V43.9945" stroke="var(--stroke-0, white)" stroke-width="4.3993" stroke-linecap="round" stroke-linejoin="round"/>
<path id="Vector_5" d="M21.9956 53.0516H40.1104" stroke="var(--stroke-0, white)" stroke-width="4.3993" stroke-linecap="round" stroke-linejoin="round"/>
<path id="Vector_6" d="M24.5872 45.2878H37.5263L36.4911 53.0512H25.6223L24.5872 45.2878Z" stroke="var(--stroke-0, white)" stroke-width="4.3993" stroke-linecap="round" stroke-linejoin="round"/>
</g>
</svg>
