<svg preserveAspectRatio="none" width="100%" height="100%" overflow="visible" style="display: block;" viewBox="0 0 33.2421 32.9461" fill="none" xmlns="http://www.w3.org/2000/svg">
<g id="Group">
<path id="Vector" d="M31.2112 15.3088C31.7445 15.3089 32.2558 15.5352 32.6145 15.9299C32.9734 16.3249 33.1494 16.8569 33.0979 17.3879L32.5305 23.2893C32.5107 23.4952 32.4057 23.6837 32.2424 23.8098L26.3684 28.3333V32.0637C26.3682 32.4767 26.0343 32.8106 25.6213 32.8108C25.2082 32.8108 24.8735 32.4768 24.8733 32.0637V27.9661C24.8733 27.734 24.9803 27.515 25.1643 27.3733L31.0725 22.8225L31.6096 17.2444C31.6204 17.1294 31.585 17.0205 31.508 16.9358H31.5071C31.4299 16.8505 31.3261 16.8041 31.2112 16.804C31.0138 16.804 30.8415 16.9521 30.8127 17.1477L30.2287 21.1799C30.1973 21.3992 30.0698 21.5926 29.8811 21.7092L27.1291 23.4065L27.1281 23.4055C27.1207 23.4102 27.1075 23.4186 27.0949 23.426L27.0959 23.427L25.2854 24.5432C24.9336 24.7592 24.4739 24.65 24.2571 24.2991C24.0409 23.9479 24.1492 23.4867 24.5012 23.2698L26.3303 22.1418C26.4463 22.0634 26.5258 21.9457 26.5559 21.8059C26.5791 21.6963 26.5687 21.5861 26.5266 21.4856L26.4739 21.3889C26.313 21.1535 25.9951 21.0808 25.7473 21.2288L25.7483 21.2297L22.5793 23.1311C22.3147 23.2904 21.9783 23.2691 21.7346 23.0793C21.2393 22.6942 20.5299 22.7327 20.0832 23.1643C19.8397 23.3997 19.6995 23.7295 19.6994 24.0686V32.0637C19.6992 32.4768 19.3645 32.8108 18.9514 32.8108C18.5385 32.8106 18.2045 32.4767 18.2043 32.0637V24.0686C18.2044 23.326 18.5106 22.6051 19.0442 22.0891L19.2121 21.9387C20.058 21.2477 21.2403 21.131 22.1994 21.6145L24.9778 19.9475C25.8448 19.4266 26.9534 19.6261 27.5891 20.387L27.7092 20.5471L27.8196 20.7268C27.8885 20.8538 27.9417 20.9868 27.9817 21.1233L28.7981 20.6204L29.3332 16.9329C29.4675 16.0062 30.2748 15.3088 31.2112 15.3088Z" fill="var(--fill-0, #4437F3)" stroke="var(--stroke-0, #4437F3)" stroke-width="0.270034"/>
<path id="Vector_2" d="M2.03175 15.3088C2.9679 15.309 3.77447 16.0063 3.90871 16.9329L4.44289 20.6194L5.25929 21.1233C5.31852 20.921 5.41012 20.7266 5.53273 20.5471C6.13965 19.6566 7.3388 19.3919 8.26418 19.9475L11.0425 21.6145C12.0713 21.0982 13.348 21.268 14.1978 22.0881L14.3872 22.2913C14.8036 22.7855 15.0376 23.4189 15.0376 24.0686V32.0637C15.0374 32.4767 14.7036 32.8107 14.2905 32.8108C13.8774 32.8108 13.5427 32.4768 13.5425 32.0637V24.0686C13.5424 23.7296 13.4028 23.3994 13.1587 23.1633C12.7114 22.7324 12.0029 22.6938 11.5122 23.0754C11.2693 23.264 10.9294 23.2902 10.6636 23.1311L7.49464 21.2297H7.49367C7.24802 21.0818 6.92965 21.1519 6.76808 21.3889C6.6842 21.5121 6.65504 21.6597 6.68605 21.8059C6.71606 21.9455 6.79534 22.0634 6.91164 22.1418L8.74074 23.2698C9.09271 23.4867 9.20196 23.9479 8.98586 24.2991H8.98488C8.76753 24.6497 8.30744 24.7596 7.95656 24.5432L6.14699 23.428L6.14601 23.427L6.11378 23.4075L3.36086 21.7092C3.1722 21.5926 3.04462 21.3991 3.0132 21.1799L2.42921 17.1477C2.40048 16.9522 2.22891 16.8041 2.03175 16.804C1.94535 16.804 1.86472 16.8301 1.79738 16.8792L1.73488 16.9358C1.65781 17.0205 1.62155 17.1293 1.63234 17.2444L2.16847 22.8225L8.07765 27.3733C8.26167 27.515 8.36867 27.7339 8.36867 27.9661V32.0637C8.36847 32.4766 8.0345 32.8106 7.6216 32.8108C7.20849 32.8108 6.87375 32.4768 6.87355 32.0637V28.3333L0.999527 23.8098C0.836203 23.6837 0.731271 23.4952 0.711441 23.2893L0.144058 17.3879L0.135269 17.1887C0.139403 16.7259 0.31342 16.2755 0.627457 15.9299C0.986272 15.5351 1.49822 15.3088 2.03175 15.3088Z" fill="var(--fill-0, #4437F3)" stroke="var(--stroke-0, #4437F3)" stroke-width="0.270034"/>
<path id="Vector_3" d="M18.44 0.135268C19.2333 0.135289 19.9611 0.499347 20.4439 1.10304C22.5779 1.62521 23.9552 2.51858 24.4488 3.80421C24.7754 4.65394 24.6305 5.46126 24.4273 6.03078C25.6764 6.62616 27.2212 7.95529 27.2212 10.2632C27.2212 12.3717 26.3617 13.6719 25.6353 14.3921C25.629 14.3983 25.621 14.4017 25.6148 14.4068C25.6256 14.465 25.6381 14.5259 25.6451 14.5874C25.7585 15.5908 25.4762 16.5574 24.8472 17.3071C24.2429 18.0277 23.2237 18.4868 22.1538 18.5552C21.7196 19.8539 20.4938 20.7719 19.1001 20.772C18.2992 20.772 17.5172 20.4687 16.9312 19.9331L16.8169 19.8228C16.8116 19.8175 16.8072 19.8115 16.8023 19.8062C16.3323 20.393 15.6121 20.7719 14.8023 20.772C14.0086 20.772 13.2794 20.408 12.7964 19.8032C10.6632 19.281 9.28691 18.3875 8.79349 17.1021C8.46671 16.2519 8.61055 15.4441 8.814 14.8745C7.56502 14.2794 6.02103 12.9513 6.02103 10.6441C6.02107 8.77753 6.69312 7.54888 7.35209 6.79054C7.26258 6.52965 7.19696 6.25945 7.16556 5.98195V5.98097C7.05284 4.97843 7.33486 4.01199 7.96439 3.26222C8.67165 2.41805 9.94748 1.92715 11.2134 2.0132C11.7346 0.895615 12.8714 0.135268 14.1421 0.135268C14.9971 0.135311 15.828 0.480601 16.4244 1.08449C16.4295 1.08963 16.4342 1.09587 16.439 1.10109C16.9091 0.514111 17.6299 0.135268 18.44 0.135268ZM14.1421 1.63039C13.553 1.63039 13.0169 1.93707 12.7007 2.40968C12.8912 2.50571 13.0762 2.61902 13.2525 2.75246C13.5819 3.0015 13.6477 3.47096 13.398 3.80031C13.1489 4.12892 12.6794 4.19378 12.3501 3.94484C11.7928 3.52295 11.1263 3.42076 10.522 3.5132C9.91447 3.60621 9.38748 3.89306 9.11088 4.22316H9.1099C8.74869 4.65377 8.58475 5.21715 8.65189 5.813L8.69291 6.06007C8.81992 6.6291 9.15691 7.15186 9.64408 7.52003C9.7877 7.62932 9.93991 7.72439 10.0943 7.80128C10.4633 7.9854 10.6137 8.43387 10.4292 8.80324C10.2984 9.06562 10.0335 9.2173 9.75931 9.2173C9.64778 9.21725 9.53382 9.19231 9.42631 9.1382V9.13917C9.18957 9.02111 8.95885 8.87746 8.74174 8.71339C8.53217 8.55478 8.34341 8.37583 8.1724 8.1841C7.8178 8.73798 7.51618 9.53236 7.51615 10.6441C7.51615 11.8578 8.13288 12.6262 8.75931 13.0972C9.07324 13.3332 9.38857 13.4936 9.62748 13.5952C9.74678 13.6459 9.84736 13.6823 9.91752 13.7056C9.95226 13.7171 9.9797 13.7254 9.99857 13.731C10.0175 13.7365 10.0279 13.7388 10.0279 13.7388C10.2672 13.7995 10.4602 13.9747 10.5454 14.2066C10.6307 14.438 10.595 14.695 10.4527 14.896L10.4536 14.897C10.4501 14.9023 10.306 15.1165 10.2017 15.4321C10.0949 15.7554 10.0344 16.1702 10.1919 16.5737C10.4082 17.1268 11.016 17.6149 12.0142 18.0005C12.0042 17.9279 11.9972 17.8535 11.9956 17.7778V17.2163C11.9956 16.8031 12.3305 16.4683 12.7437 16.4683C13.1569 16.4683 13.4917 16.8031 13.4917 17.2163C13.4917 17.6692 13.4836 17.8373 13.5201 17.9946C13.5381 18.0726 13.5669 18.1472 13.6167 18.2515L13.8394 18.6851V18.686C14.0277 19.052 14.3962 19.2769 14.8023 19.2769C15.3928 19.2767 15.8736 18.7954 15.8736 18.2046V3.36671C15.8735 2.90968 15.6875 2.46199 15.3648 2.13917L15.3638 2.1382C15.0449 1.81496 14.6006 1.63043 14.1421 1.63039ZM21.2456 3.69093C21.2456 4.10399 20.9116 4.43879 20.4986 4.43898C20.0854 4.43898 19.7506 4.1041 19.7505 3.69093V3.14796C19.7468 2.98671 19.7063 2.8176 19.6285 2.65675L19.4029 2.22121H19.4019C19.2136 1.85584 18.846 1.63041 18.44 1.63039C17.8492 1.63039 17.3687 2.1109 17.3687 2.70167V17.5405C17.3688 18.004 17.5494 18.4398 17.8775 18.7681L17.8785 18.7691C18.1974 19.0924 18.6422 19.2769 19.1001 19.2769C19.7438 19.2768 20.3257 18.9116 20.6245 18.3638C20.3051 18.2597 19.9929 18.1179 19.7017 17.9204L19.5581 17.8179C19.2291 17.5683 19.1637 17.0994 19.4126 16.77L19.4624 16.7114C19.7036 16.4525 20.0947 16.3986 20.397 16.5816L20.4605 16.6245C21.0181 17.0467 21.6844 17.1487 22.2886 17.0562C22.8962 16.9631 23.424 16.6762 23.7017 16.3462C24.0624 15.9156 24.2269 15.3521 24.1597 14.7554C24.0851 14.0932 23.7235 13.4702 23.1665 13.0493V13.0484C23.0261 12.9416 22.8744 12.8472 22.7154 12.7671C22.3468 12.5816 22.1979 12.132 22.3833 11.7632C22.5688 11.3942 23.019 11.2451 23.3872 11.4312C23.628 11.5521 23.8574 11.6958 24.0699 11.8569C24.4335 12.1322 24.7428 12.4643 24.9908 12.8335C25.3785 12.2769 25.7251 11.4542 25.7251 10.2632C25.7251 9.05845 25.1278 8.29432 24.5113 7.82374C24.046 7.46861 23.5726 7.28304 23.3462 7.20753L23.2115 7.16652C22.9737 7.10453 22.7799 6.92949 22.6958 6.69777C22.6123 6.46767 22.6456 6.21026 22.7886 6.00929L22.8736 5.86476C22.9237 5.77069 22.9872 5.63559 23.0406 5.47414C23.1474 5.15078 23.207 4.73614 23.0494 4.33253C22.8328 3.77926 22.2251 3.29044 21.2261 2.9048C21.2362 2.97799 21.2441 3.05307 21.2456 3.12941V3.69093Z" fill="var(--fill-0, #4437F3)" stroke="var(--stroke-0, #4437F3)" stroke-width="0.270034"/>
<path id="Vector_4" d="M13.7852 7.82821C14.1402 7.61887 14.5994 7.73835 14.8087 8.09481C15.0169 8.44996 14.8981 8.9068 14.545 9.11629L14.544 9.11532C14.4683 9.16115 14.3209 9.26983 14.1846 9.41805C14.0465 9.56826 13.9319 9.74664 13.9005 9.92977C13.8621 10.1559 13.9464 10.4147 14.2081 10.7325C14.4718 11.051 14.4267 11.5224 14.1085 11.7852C13.9692 11.9004 13.8002 11.9561 13.6329 11.9561C13.4178 11.9561 13.2034 11.8637 13.0557 11.6847C12.3914 10.8805 12.3436 10.1469 12.4288 9.66512C12.5299 9.0938 12.8434 8.65031 13.1397 8.34481C13.4349 8.04048 13.721 7.86588 13.7852 7.82821Z" fill="var(--fill-0, #4437F3)" stroke="var(--stroke-0, #4437F3)" stroke-width="0.270034"/>
<path id="Vector_5" d="M18.1617 9.88158C18.426 9.66055 18.8164 9.64386 19.0982 9.86595C19.7293 10.362 20.6522 11.7947 19.7525 13.7107C19.6253 13.9817 19.3563 14.1403 19.0758 14.1404C18.9965 14.1404 18.9152 14.128 18.8365 14.1013L18.7584 14.0701C18.3844 13.8947 18.2238 13.4487 18.399 13.0749C18.7092 12.4141 18.6641 11.9214 18.5406 11.5896C18.4155 11.2533 18.2049 11.0676 18.1666 11.0359C17.8521 10.776 17.7995 10.3074 18.0572 9.98802L18.1617 9.88158Z" fill="var(--fill-0, #4437F3)" stroke="var(--stroke-0, #4437F3)" stroke-width="0.270034"/>
</g>
</svg>
