<svg preserveAspectRatio="none" width="100%" height="100%" overflow="visible" style="display: block;" viewBox="0 0 32.8091 28.7576" fill="none" xmlns="http://www.w3.org/2000/svg">
<g id="Group 48095571">
<path id="Vector" d="M30.5802 14.3808H30.3439C30.0261 14.3808 29.756 14.1445 29.6815 13.814C29.4382 12.7605 29.0134 11.7479 28.4129 10.8028C28.2301 10.5187 28.2582 10.1685 28.4874 9.94487L29.4199 9.01242C29.7026 8.7227 29.8517 8.32326 29.8109 7.91259C29.7701 7.51456 29.5605 7.16297 29.23 6.94777C27.697 5.92812 25.7266 5.92812 24.1865 6.91402C23.2217 6.36271 22.1753 5.9295 21.074 5.60604C21.1064 5.38382 21.1289 5.15738 21.1289 4.92814C21.1289 2.32201 19.0094 0.202525 16.4033 0.202525C13.7972 0.202525 11.6777 2.32201 11.6777 4.92814C11.6777 5.15739 11.7002 5.38241 11.7325 5.60604C8.31488 6.60319 5.64268 8.61722 4.17009 11.149C3.80021 10.8817 3.52877 10.5962 3.3431 10.322C3.85645 10.3149 4.33604 10.1391 4.67358 9.79457C5.01816 9.45703 5.20663 9.00416 5.21365 8.51893C5.21365 8.03229 5.02519 7.5738 4.67358 7.22924C3.97178 6.53446 2.82413 6.53446 2.11527 7.22924C1.98025 7.36426 1.86492 7.53303 1.77772 7.72149C1.66943 7.45849 1.58926 7.13361 1.5555 6.7426C1.52175 6.37132 1.19125 6.10128 0.819929 6.128C0.448649 6.16175 0.171557 6.49226 0.205329 6.86357C0.347378 8.43035 1.06887 9.28122 1.61599 9.70597C1.8579 10.758 2.54704 11.6932 3.56532 12.3655C3.13496 13.4288 2.90291 14.5596 2.90291 15.7283C2.90291 18.0503 3.80724 20.2656 5.52167 22.1346C5.74389 22.3709 5.90001 22.6888 5.97454 23.053L6.75087 26.9278C6.93934 27.873 7.77758 28.5551 8.73534 28.5551H10.5722C11.5314 28.5551 12.3682 27.873 12.5566 26.9278L12.7184 26.1107C15.136 26.6649 17.7014 26.6241 20.1105 26.226L20.2525 26.9278C20.441 27.873 21.2793 28.5551 22.237 28.5551H24.0738C25.033 28.5551 25.8698 27.873 26.0583 26.9278L26.4563 24.9434C26.5646 24.3836 26.9219 23.8829 27.4352 23.5932C29.8051 22.2233 31.3507 20.7381 32.0665 19.9744C32.4111 19.6031 32.6066 19.1108 32.6066 18.5904V16.4034C32.6066 15.2895 31.6952 14.3782 30.5813 14.3782L30.5802 14.3808ZM3.06757 8.19227C3.249 8.01366 3.54434 8.01366 3.72296 8.18946C3.81157 8.27806 3.85939 8.3948 3.85939 8.51856C3.85939 8.63952 3.81157 8.75203 3.71875 8.84345C3.59357 8.97143 3.26026 9.03051 2.87346 8.88283C2.87768 8.52138 2.98457 8.27385 3.06615 8.19086L3.06757 8.19227ZM16.4033 1.55373C18.2669 1.55373 19.7788 3.06564 19.7788 4.92917C19.7788 6.07401 19.1853 7.13586 18.2331 7.75471C17.0236 7.6 15.7831 7.6 14.5736 7.75471C13.6214 7.13446 13.0279 6.07401 13.0279 4.92917C13.0279 3.06564 14.5398 1.55373 16.4033 1.55373ZM31.2553 18.5926C31.2553 18.7684 31.1948 18.9301 31.0795 19.0511C30.4185 19.7599 28.9726 21.1438 26.7589 22.4195C25.908 22.9188 25.3145 23.743 25.1317 24.681L24.7337 26.6585C24.6732 26.9763 24.3891 27.2056 24.0712 27.2056H22.2344C21.9166 27.2056 21.6339 26.9763 21.572 26.6585L21.43 25.9567C21.2809 25.2338 20.6002 24.7753 19.8773 24.8906C17.6495 25.2689 15.2528 25.3083 13.018 24.8034C12.6664 24.7218 12.3021 24.7837 11.9913 24.9792C11.6805 25.1747 11.4653 25.4996 11.3907 25.8568L11.229 26.6599C11.1685 26.9778 10.8844 27.207 10.5666 27.207H8.72976C8.41191 27.207 8.12921 26.9777 8.06735 26.6599L7.29102 22.7851C7.17006 22.1775 6.89864 21.6374 6.51468 21.2183C5.02949 19.6108 4.2461 17.7078 4.2461 15.7305C4.2461 11.7642 7.38528 8.27929 12.1095 6.89959C12.3064 7.32855 12.5694 7.72518 12.8859 8.07677C12.6735 8.13162 12.4583 8.18225 12.2502 8.24695C11.8943 8.35805 11.696 8.73639 11.8071 9.09223C11.9182 9.44806 12.298 9.64638 12.6524 9.53527C15.0265 8.79548 17.7734 8.79548 20.1471 9.53527C20.2132 9.55636 20.2822 9.56621 20.3483 9.56621C20.6352 9.56621 20.9024 9.38056 20.9924 9.09224C21.1035 8.73642 20.9052 8.35807 20.5494 8.24696C20.3412 8.18226 20.126 8.13163 19.9137 8.07678C20.2301 7.72517 20.4917 7.32997 20.6886 6.90101C21.8236 7.23433 22.8953 7.69423 23.8671 8.28917C24.1034 8.43825 24.4142 8.41716 24.6365 8.24135C25.7574 7.35672 27.303 7.28356 28.4576 8.05289L27.5252 8.98534C26.8571 9.65341 26.7559 10.7265 27.2748 11.531C27.7882 12.3411 28.1524 13.2117 28.355 14.1104C28.5716 15.0625 29.3873 15.7306 30.3394 15.7306H30.5757C30.947 15.7306 31.2508 16.0344 31.2508 16.4057V18.5927L31.2553 18.5926Z" fill="var(--fill-0, #4437F3)" stroke="var(--stroke-0, #4437F3)" stroke-width="0.405051"/>
<path id="Vector_2" d="M23.8299 12.3541C22.6471 12.3541 22.0212 13.2809 21.8398 13.828C21.7231 14.1782 21.9115 14.5537 22.2603 14.6747C22.6091 14.7971 22.9917 14.61 23.1183 14.2626C23.1394 14.2064 23.3349 13.7043 23.8299 13.7043C24.325 13.7043 24.5219 14.2064 24.5402 14.2556C24.6344 14.5383 24.8974 14.7169 25.1801 14.7169C25.2504 14.7169 25.3222 14.7056 25.3939 14.6817C25.7469 14.5636 25.9382 14.181 25.8214 13.828C25.6386 13.2809 25.0141 12.354 23.8314 12.354L23.8299 12.3541Z" fill="var(--fill-0, #4437F3)"/>
</g>
</svg>
