<svg width="57" height="61" viewBox="0 0 57 61" fill="none" xmlns="http://www.w3.org/2000/svg">
<path d="M28.401 41.486C12.0447 41.486 9.14832 25.1865 8.63718 12.2548C8.49236 8.65982 8.42137 6.85949 9.77304 5.19831C11.1219 3.53428 12.7376 3.26168 15.972 2.71647C20.0805 2.04346 24.2378 1.71386 28.401 1.73111C33.4669 1.73111 37.6384 2.17694 40.8301 2.71647C44.0645 3.26168 45.6802 3.53428 47.0319 5.19831C48.3835 6.86233 48.3097 8.65982 48.1677 12.2548C47.6566 25.1865 44.7602 41.486 28.4039 41.486H28.401Z" stroke="white" stroke-width="3.4608"/>
<path d="M28.3945 41.4844V50.0033" stroke="white" stroke-width="3.4608" stroke-linecap="round"/>
<path d="M38.3345 58.5229H18.457L19.4225 53.7069C19.5511 53.0634 19.8987 52.4843 20.406 52.0681C20.9133 51.6519 21.5491 51.4243 22.2053 51.4238H34.5861C35.2424 51.4243 35.8782 51.6519 36.3856 52.0681C36.8929 52.4843 37.2404 53.0634 37.369 53.7069L38.3345 58.5229Z" stroke="white" stroke-width="3.4608" stroke-linecap="round" stroke-linejoin="round"/>
<path d="M48.2737 10.249L50.9685 11.1463C53.7798 12.0834 55.1854 12.552 55.989 13.6679C56.7926 14.7839 56.7926 16.269 56.7926 19.2279V19.4352C56.7926 21.8773 56.7926 23.1012 56.2048 24.1008C55.617 25.1003 54.5465 25.6938 52.4111 26.8836L44.0143 31.5463M8.51886 10.249L5.82409 11.1463C3.01285 12.0834 1.60723 12.552 0.803616 13.6679C0 14.7839 0 16.269 0 19.2279V19.4352C0 21.8773 4.23138e-08 23.1012 0.587804 24.1008C1.17561 25.1003 2.24615 25.6938 4.38155 26.8836L12.7783 31.5463M25.9712 13.154C27.0503 11.2145 27.5898 10.249 28.3963 10.249C29.2028 10.249 29.7423 11.2145 30.8213 13.154L31.0996 13.6537C31.4063 14.2046 31.5596 14.4772 31.7982 14.659C32.0395 14.8407 32.3377 14.9089 32.934 15.0423L33.4736 15.1673C35.5692 15.6415 36.617 15.8772 36.8669 16.678C37.1168 17.4787 36.4012 18.3164 34.9729 19.9861L34.6037 20.4178C34.1977 20.892 33.9932 21.1277 33.9023 21.423C33.8115 21.7183 33.8427 22.0335 33.9023 22.6667L33.9591 23.2432C34.1749 25.4723 34.2829 26.5883 33.6326 27.0824C32.9795 27.5765 31.997 27.125 30.0348 26.222L29.5293 25.9891C28.9699 25.7335 28.6916 25.6058 28.3963 25.6058C28.101 25.6058 27.8227 25.7335 27.2633 25.9891L26.7578 26.222C24.7956 27.1278 23.8131 27.5765 23.16 27.0824C22.5069 26.5883 22.6176 25.4723 22.8335 23.2432L22.8902 22.6667C22.9499 22.0335 22.9811 21.7183 22.8902 21.423C22.7994 21.1277 22.5949 20.892 22.1889 20.4178L21.8197 19.9861C20.3914 18.3164 19.6758 17.4816 19.9257 16.678C20.1756 15.8772 21.2234 15.6415 23.319 15.1673L23.8586 15.0423C24.4549 14.9089 24.753 14.8436 24.9944 14.659C25.2329 14.4772 25.3863 14.2046 25.693 13.6537L25.9712 13.154Z" fill="white"/>
<path d="M45.4311 58.5225H11.3555" stroke="white" stroke-width="3.4608" stroke-linecap="round"/>
</svg>
