<?xml version="1.0" encoding="UTF-8"?>
<svg id="svg2" xmlns="http://www.w3.org/2000/svg" xmlns:svg="http://www.w3.org/2000/svg" xmlns:sodipodi="http://sodipodi.sourceforge.net/DTD/sodipodi-0.dtd" xmlns:rdf="http://www.w3.org/1999/02/22-rdf-syntax-ns#" xmlns:osb="http://www.openswatchbook.org/uri/2009/osb" xmlns:inkscape="http://www.inkscape.org/namespaces/inkscape" xmlns:dc="http://purl.org/dc/elements/1.1/" xmlns:cc="http://creativecommons.org/ns#" version="1.1" viewBox="0 0 284.5 144.6">
  <!-- Generator: Adobe Illustrator 30.4.0, SVG Export Plug-In . SVG Version: 2.1.4 Build 226)  -->
  <defs>
    <style>
      .st0 {
        fill: none;
        stroke: #2158a5;
        stroke-linecap: round;
        stroke-linejoin: round;
      }

      .st1 {
        fill: #fff;
      }
    </style>
  </defs>
  <rect class="st1" x="0" y="0" width="5.5" height="144.6"/>
  <polygon class="st1" points="43.6 47.1 55.9 47.1 55.9 99.1 61.6 99.1 61.6 47.1 73.9 47.1 73.9 41.5 43.6 41.5 43.6 47.1"/>
  <path class="st1" d="M110,76.3h17.7c-.7,5.1-3.1,9.1-7,12.3-4,3.1-8.8,4.7-14.5,4.7s-9.1-1-13-3.1c-4-2.1-7.1-5-9.3-8.7-2.3-3.7-3.4-7.6-3.4-11.7s1-7.8,3.2-11.4c2.1-3.6,5.2-6.4,9.1-8.5,3.9-2.1,8.1-3.1,12.4-3.1s7,.7,10.7,2.3c3.7,1.6,7.1,3.8,10.2,6.8l4.3-4c-3.9-3.7-8-6.3-12.1-8-4.2-1.7-8.6-2.5-13.3-2.5s-11,1.3-15.6,3.8c-4.5,2.5-8.2,6-10.8,10.4-2.7,4.5-4,9.2-4,14.4s2.3,13,7.2,18.1c5.9,6.9,14.1,10.3,24.3,10.3s15.2-2.5,20.2-7.4c5-4.9,7.5-11.6,7.6-20h-23.9v5.3Z"/>
  <path class="st1" d="M140.6,0v144.6h144V0h-144ZM177.3,98.8l-20.4-26.5h-3.3v26.5h-5.7v-57h0,11.3c6.3,0,10.6.3,12.9.8,3.4.8,6.1,2.4,8.2,5,2.1,2.5,3.2,5.7,3.2,9.4s-.7,5.8-2.2,8.2c-1.4,2.4-3.5,4.1-6.2,5.3-2.7,1.2-6.5,1.8-11.2,1.8l20.5,26.5h-7Z"/>
  <path class="st1" d="M176,62.4c1-1.6,1.5-3.4,1.5-5.3s-.5-3.6-1.5-5.2c-1-1.6-2.4-2.7-4.1-3.4-1.7-.7-4.5-1-8.4-1h-10c0-.1,0,19.3,0,19.3h9.8c3.8.1,6.6-.3,8.4-1,1.8-.7,3.3-1.9,4.3-3.4Z"/>
  <line class="st0" x1="147.8" y1="41.8" x2="147.9" y2="41.8"/>
</svg>