<svg width="153" height="35" viewBox="0 0 153 35" fill="none" xmlns="http://www.w3.org/2000/svg">
        <title>Ansa.it</title>
        <path d="M23.9087 1.10547L32.1308 25.746C33.115 28.7439 33.8121 29.442 35.5344 29.442H37.2158V33.7746H19.2543V29.442H20.7306C22.2069 29.442 23.4371 29.2367 23.4371 28.7028C23.4371 28.21 23.3961 27.6761 23.1911 26.9164L22.1659 23.364H12.1189L11.5243 25.3353C10.9912 27.0601 10.7862 27.7993 10.7862 28.4975C10.7862 29.2778 12.5085 29.442 13.8413 29.442H15.2766V33.7746H0.800781V29.442H2.4821C4.20443 29.442 4.90157 28.7439 5.88576 25.746L14.1078 1.10547H23.9497H23.9087ZM13.5337 19.052H20.6691L17.1219 8.45655H17.0194L13.5337 19.052Z" fill="#4AB24A" />
        <path d="M67.1313 23.631H67.2338V7.40932C67.2338 6.1773 66.5367 5.43809 65.3065 5.43809H62.3129V1.10547H77.4653V5.43809H74.5127C73.2825 5.43809 72.5853 6.1773 72.5853 7.40932V33.7746H62.6409L48.9648 9.48323H48.8623V27.4708C48.8623 28.7028 49.5594 29.442 50.7897 29.442H53.7832V33.7746H38.5693V29.442H41.5629C42.7931 29.442 43.4903 28.7028 43.4903 27.4708V7.40932C43.4903 6.1773 42.7931 5.43809 41.5629 5.43809H38.5078V1.10547H54.3574L67.1108 23.631H67.1313Z" fill="#4AB24A" />
        <path d="M105.904 12.7885H101.372C100.634 7.614 96.0619 4.69821 91.7356 4.69821C88.8855 4.69821 86.22 5.64277 86.22 8.92816C86.22 15.1294 107.524 10.1602 107.524 24.2053C107.524 32.0902 100.737 34.7391 93.95 34.7391C90.1568 34.7391 86.3225 33.9588 83.2265 31.6795L81.9552 34.2873H77.8134V21.3716H82.3858C83.0214 26.5461 87.3067 30.1395 93.1093 30.1395C95.6723 30.1395 98.7684 28.7021 98.7684 25.9096C98.7684 18.8665 77.4648 24.5749 77.4648 10.4271C77.4648 2.29577 84.8053 0.078125 91.5921 0.078125C94.9342 0.078125 98.1328 1.16641 100.942 2.93231L101.824 0.612002H105.904V12.7269V12.7885Z" fill="#4AB24A" />
        <path d="M142.935 29.6464C136.865 29.6464 131.944 24.7183 131.944 18.6403C131.944 16.361 132.642 14.2461 133.831 12.4802L130.038 1.125H120.196L111.974 25.7655C110.989 28.7634 110.292 29.4616 108.57 29.4616H106.889V33.7942H121.364V29.4616H119.929C118.596 29.4616 116.874 29.3178 116.874 28.517C116.874 27.8189 117.079 27.0796 117.612 25.3548L118.207 23.3836H128.254L129.279 26.9359C129.484 27.6751 129.525 28.209 129.525 28.7223C129.525 29.2562 128.295 29.4616 126.818 29.4616H125.342V33.7942H143.304V29.6053C143.181 29.6053 143.058 29.6464 142.914 29.6464H142.935ZM119.663 19.051L123.148 8.45554H123.251L126.798 19.051H119.663Z" fill="#4AB24A" />
        <path d="M142.302 23.1176C142.302 23.7952 142.466 24.1443 143.163 24.1443H144.147V26.0539H136.437V24.1443H137.463C138.16 24.1443 138.324 23.7746 138.324 23.1176V17.7993C138.324 17.1217 138.16 16.7726 137.463 16.7726H136.355V14.863H142.302V23.1381V23.1176ZM142.302 11.7624C142.302 12.9328 141.399 13.8569 140.21 13.8569C139.021 13.8569 138.119 12.9534 138.119 11.7624C138.119 10.5715 139.021 9.66797 140.21 9.66797C141.399 9.66797 142.302 10.5715 142.302 11.7624Z" fill="#4AB24A" />
        <path d="M149.091 10.3652V14.8416H152.043V16.7512H149.091V23.3426C149.091 23.8559 149.357 24.246 149.911 24.246C150.813 24.246 151.059 23.6095 151.059 22.5007V20.6321H152.966V22.7676C152.966 25.129 151.818 26.4226 148.947 26.4226C146.487 26.4226 145.113 25.2317 145.113 22.7676V16.7512H143.514V14.8416C145.913 14.8416 146.528 12.357 146.733 10.3652H149.111H149.091Z" fill="#4AB24A" />
      </svg>