{
  "asset": {
    "version": "2.0",
    "generator": "THREE.GLTFExporter"
  },
  "scenes": [
    {
      "nodes": [
        0
      ]
    }
  ],
  "scene": 0,
  "nodes": [
    {
      "children": [
        9
      ],
      "matrix": [
        0.01,
        0,
        0,
        0,
        0,
        0.01,
        0,
        0,
        0,
        0,
        0.01,
        0,
        0,
        0,
        0,
        1
      ]
    },
    {
      "matrix": [
        4.595855675783757,
        0,
        0,
        0,
        0,
        4.595855675783757,
        0,
        0,
        0,
        0,
        4.595855675783757,
        0,
        0,
        0,
        0,
        1
      ],
      "name": "Asterisco Test"
    },
    {
      "matrix": [
        1,
        0,
        0,
        0,
        0,
        1,
        0,
        0,
        0,
        0,
        0.1,
        0,
        0,
        0,
        0,
        1
      ],
      "name": "Extrude1",
      "mesh": 0
    },
    {
      "name": "Asterisco_CutFix",
      "mesh": 1
    },
    {
      "matrix": [
        6.377966497059294,
        0,
        0,
        0,
        0,
        6.243362563868294,
        0,
        0,
        0,
        0,
        10.125020053936671,
        0,
        0.242339770827698,
        0.14335480186544206,
        -0.8425631726800166,
        1.0000000000000002
      ],
      "name": "Asterisco_Viola",
      "children": [
        2,
        3
      ]
    },
    {
      "matrix": [
        -0.5736966956933678,
        0.6708721839473482,
        -0.4698963866175465,
        0,
        -8.259685058131794e-8,
        -0.57369659910588,
        -0.8190678922863115,
        0,
        -0.8190678246338972,
        -0.4698965045412265,
        0.32912789864949543,
        0,
        44.39,
        122.15,
        11.34,
        1
      ],
      "name": "Group",
      "children": [
        4
      ]
    },
    {
      "matrix": [
        0.7101155280761177,
        0.2795355439271039,
        -0.6462165399202924,
        0,
        -0.36628977445362865,
        0.930500833492754,
        0,
        0,
        0.6013050290126356,
        0.2367025106556082,
        0.7631541020878059,
        0,
        0,
        0,
        0,
        1
      ],
      "name": "Directional Light",
      "extensions": {
        "KHR_lights_punctual": {
          "light": 0
        }
      }
    },
    {
      "matrix": [
        0.9921306466242736,
        -4.4161786543622794e-8,
        0.12520694880436473,
        0,
        0.019432661828587938,
        0.987882442505737,
        -0.15398263357650124,
        0,
        -0.12368973960339838,
        0.1552039941138673,
        0.9801084473301647,
        0,
        32.74140774527555,
        167.2824161780502,
        366.3924800783203,
        1
      ],
      "name": "Personal Camera",
      "camera": 0
    },
    {
      "matrix": [
        1,
        0,
        0,
        0,
        0,
        1,
        0,
        0,
        0,
        0,
        1,
        0,
        0,
        1,
        0,
        1
      ],
      "name": "Default Ambient Light"
    },
    {
      "name": "Scene 1",
      "children": [
        1,
        5,
        6,
        7,
        8
      ]
    }
  ],
  "bufferViews": [
    {
      "buffer": 0,
      "byteOffset": 0,
      "byteLength": 1872,
      "target": 34962,
      "byteStride": 8
    },
    {
      "buffer": 0,
      "byteOffset": 1872,
      "byteLength": 2808,
      "target": 34962,
      "byteStride": 12
    },
    {
      "buffer": 0,
      "byteOffset": 4680,
      "byteLength": 2808,
      "target": 34962,
      "byteStride": 12
    },
    {
      "buffer": 0,
      "byteOffset": 7488,
      "byteLength": 1368,
      "target": 34963
    },
    {
      "buffer": 0,
      "byteOffset": 8856,
      "byteLength": 30264,
      "target": 34962,
      "byteStride": 12
    },
    {
      "buffer": 0,
      "byteOffset": 39120,
      "byteLength": 30264,
      "target": 34962,
      "byteStride": 12
    },
    {
      "buffer": 0,
      "byteOffset": 69384,
      "byteLength": 30240,
      "target": 34963
    }
  ],
  "buffers": [
    {
      "byteLength": 99624,
      "uri": "data:application/octet-stream;base64,"
    }
  ],
  "accessors": [
    {
      "bufferView": 0,
      "componentType": 5126,
      "count": 234,
      "max": [
        1,
        1
      ],
      "min": [
        0,
        0
      ],
      "type": "VEC2"
    },
    {
      "bufferView": 1,
      "componentType": 5126,
      "count": 234,
      "max": [
        10.510616302490234,
        10.845924377441406,
        0.09510534256696701
      ],
      "min": [
        -10.562979698181152,
        -10.503198623657227,
        -0.004894673824310303
      ],
      "type": "VEC3"
    },
    {
      "bufferView": 2,
      "componentType": 5126,
      "count": 234,
      "max": [
        0.999995768070221,
        0.9999186992645264,
        1
      ],
      "min": [
        -0.9997390508651733,
        -0.9999933242797852,
        -1
      ],
      "type": "VEC3"
    },
    {
      "bufferView": 3,
      "componentType": 5123,
      "count": 684,
      "max": [
        233
      ],
      "min": [
        0
      ],
      "type": "SCALAR"
    },
    {
      "bufferView": 4,
      "componentType": 5126,
      "count": 2522,
      "max": [
        10.713422775268555,
        11.045978546142578,
        2.4235870838165283
      ],
      "min": [
        -10.767663955688477,
        -10.71275520324707,
        -2.4237122535705566
      ],
      "type": "VEC3"
    },
    {
      "bufferView": 5,
      "componentType": 5126,
      "count": 2522,
      "max": [
        1,
        0.9999769330024719,
        1
      ],
      "min": [
        -1,
        -0.9988075494766235,
        -1
      ],
      "type": "VEC3"
    },
    {
      "bufferView": 6,
      "componentType": 5123,
      "count": 15120,
      "max": [
        2521
      ],
      "min": [
        0
      ],
      "type": "SCALAR"
    }
  ],
  "meshes": [
    {
      "primitives": [
        {
          "mode": 4,
          "attributes": {
            "TEXCOORD_0": 0,
            "POSITION": 1,
            "NORMAL": 2
          },
          "extras": {
            "parameters": {
              "width": 21.073596000671387,
              "height": 21.349123001098633,
              "depth": 0.10000001639127731,
              "subdivisions": 0
            },
            "type": "NonParametricGeometry"
          },
          "indices": 3
        }
      ]
    },
    {
      "primitives": [
        {
          "mode": 4,
          "attributes": {
            "POSITION": 4,
            "NORMAL": 5
          },
          "extras": {
            "parameters": {
              "width": 21.48108673095703,
              "height": 21.75873374938965,
              "depth": 4.847299337387085,
              "subdivisions": 0
            },
            "type": "NonParametricGeometry"
          },
          "indices": 6
        }
      ]
    }
  ],
  "extensions": {
    "KHR_lights_punctual": {
      "lights": [
        {
          "name": "Directional Light",
          "color": [
            1,
            1,
            1
          ],
          "intensity": 6.747,
          "type": "directional"
        }
      ]
    }
  },
  "cameras": [
    {
      "type": "perspective",
      "perspective": {
        "aspectRatio": 1.9949698189134808,
        "yfov": 0.7853981633974483,
        "zfar": 100000,
        "znear": 70
      },
      "name": "Camera"
    }
  ],
  "extensionsUsed": [
    "KHR_lights_punctual"
  ]
}